<svg xmlns:xlink="http://www.w3.org/1999/xlink" xmlns="http://www.w3.org/2000/svg" style="width:100%;height:100%;" preserveAspectRatio="none" width="107.453" height="18.034"><defs><svg viewBox="0 0 107.453 18.034" overflow="visible" id="svg386312201_9454"><g><path d="M 34.147 6.128 C 34.776 6.128 35.333 6.261 35.815 6.528 C 36.174 6.726 36.486 6.99 36.752 7.318 L 36.752 6.313 L 38.519 6.313 L 38.519 14.25 C 38.519 14.978 38.346 15.627 38.001 16.196 C 37.656 16.765 37.181 17.214 36.577 17.542 C 35.972 17.87 35.279 18.034 34.497 18.034 C 33.888 18.034 33.324 17.934 32.806 17.734 C 32.288 17.534 31.841 17.257 31.466 16.904 C 31.09 16.55 30.816 16.132 30.643 15.65 L 32.364 14.973 C 32.496 15.363 32.748 15.681 33.118 15.927 C 33.489 16.173 33.944 16.296 34.482 16.296 C 34.908 16.296 35.284 16.216 35.609 16.057 C 35.934 15.899 36.191 15.665 36.378 15.358 C 36.566 15.05 36.66 14.681 36.66 14.25 L 36.66 13.283 C 36.432 13.553 36.163 13.773 35.853 13.942 C 35.365 14.209 34.807 14.342 34.177 14.342 C 33.416 14.342 32.73 14.163 32.121 13.804 C 31.511 13.445 31.031 12.953 30.681 12.327 C 30.331 11.702 30.156 10.999 30.156 10.22 C 30.156 9.43 30.331 8.728 30.681 8.113 C 31.031 7.497 31.506 7.013 32.105 6.659 C 32.705 6.305 33.385 6.128 34.147 6.128 Z M 21.457 3.006 C 22.137 3.006 22.759 3.126 23.323 3.367 C 23.887 3.608 24.372 3.941 24.778 4.367 C 25.184 4.793 25.484 5.287 25.677 5.851 L 24.077 6.559 C 23.854 5.974 23.511 5.521 23.049 5.198 C 22.587 4.875 22.056 4.713 21.457 4.713 C 21.101 4.713 20.784 4.775 20.505 4.898 C 20.226 5.021 20.01 5.195 19.857 5.421 C 19.705 5.646 19.629 5.908 19.629 6.205 C 19.629 6.554 19.738 6.861 19.956 7.128 C 20.175 7.395 20.507 7.595 20.954 7.728 L 22.995 8.374 C 23.899 8.661 24.577 9.066 25.029 9.589 C 25.481 10.112 25.707 10.753 25.707 11.512 C 25.707 12.169 25.542 12.745 25.212 13.243 C 24.882 13.74 24.425 14.129 23.841 14.411 C 23.257 14.694 22.579 14.835 21.807 14.835 C 21.086 14.835 20.421 14.701 19.812 14.435 C 19.202 14.168 18.679 13.796 18.242 13.319 C 17.806 12.842 17.486 12.291 17.283 11.666 L 18.913 10.974 C 19.187 11.65 19.586 12.179 20.108 12.558 C 20.632 12.938 21.228 13.127 21.899 13.127 C 22.285 13.127 22.62 13.063 22.904 12.935 C 23.188 12.807 23.409 12.635 23.567 12.419 C 23.724 12.204 23.803 11.948 23.803 11.65 C 23.803 11.271 23.696 10.963 23.483 10.728 C 23.27 10.492 22.95 10.307 22.523 10.174 L 20.36 9.482 C 19.497 9.215 18.842 8.805 18.395 8.251 C 17.948 7.697 17.725 7.046 17.725 6.297 C 17.725 5.651 17.882 5.08 18.197 4.582 C 18.512 4.085 18.951 3.698 19.515 3.421 C 20.078 3.144 20.726 3.006 21.457 3.006 Z M 52.169 6.128 C 52.829 6.128 53.415 6.251 53.928 6.497 C 54.441 6.744 54.84 7.087 55.124 7.528 C 55.409 7.969 55.551 8.482 55.551 9.066 L 55.551 14.65 L 53.784 14.65 L 53.784 13.721 C 53.671 13.851 53.549 13.971 53.418 14.081 C 53.123 14.327 52.786 14.514 52.405 14.642 C 52.024 14.77 51.605 14.835 51.148 14.835 C 50.579 14.835 50.082 14.737 49.655 14.542 C 49.229 14.348 48.899 14.071 48.665 13.712 C 48.431 13.353 48.315 12.932 48.315 12.45 C 48.315 11.989 48.416 11.579 48.619 11.22 C 48.822 10.861 49.134 10.558 49.556 10.312 C 49.977 10.066 50.508 9.892 51.148 9.789 L 53.692 9.368 L 53.692 9.066 C 53.692 8.687 53.547 8.372 53.258 8.12 C 52.968 7.869 52.585 7.743 52.108 7.743 C 51.661 7.743 51.27 7.861 50.935 8.097 C 50.6 8.333 50.356 8.641 50.203 9.02 L 48.665 8.251 C 48.827 7.831 49.081 7.461 49.427 7.143 C 49.772 6.826 50.181 6.577 50.653 6.397 C 51.125 6.218 51.63 6.128 52.169 6.128 Z M 64.478 11.266 C 64.478 11.635 64.551 11.958 64.699 12.235 C 64.846 12.512 65.052 12.725 65.316 12.873 C 65.58 13.022 65.885 13.096 66.23 13.096 C 66.575 13.096 66.88 13.019 67.144 12.866 C 67.408 12.712 67.614 12.494 67.761 12.212 C 67.908 11.93 67.982 11.599 67.982 11.22 L 67.982 6.313 L 69.84 6.313 L 69.84 14.65 L 68.073 14.65 L 68.073 13.651 C 67.882 13.978 67.623 14.239 67.296 14.435 C 66.849 14.701 66.331 14.835 65.742 14.835 C 65.113 14.835 64.561 14.691 64.089 14.404 C 63.617 14.117 63.254 13.719 63 13.212 C 62.746 12.704 62.619 12.112 62.619 11.435 L 62.619 6.313 L 64.478 6.313 Z M 80.367 6.128 C 80.996 6.128 81.558 6.233 82.051 6.444 C 82.543 6.654 82.959 6.949 83.299 7.328 C 83.64 7.707 83.898 8.141 84.076 8.628 C 84.254 9.115 84.343 9.63 84.343 10.174 C 84.343 10.317 84.338 10.464 84.327 10.612 C 84.318 10.761 84.292 10.897 84.252 11.02 L 78.205 11.02 C 78.232 11.34 78.308 11.632 78.433 11.897 C 78.625 12.307 78.904 12.622 79.27 12.843 C 79.636 13.063 80.052 13.173 80.519 13.173 C 81.007 13.173 81.416 13.068 81.746 12.858 C 82.076 12.648 82.342 12.373 82.546 12.035 L 84.053 12.789 C 83.891 13.178 83.637 13.527 83.292 13.835 C 82.946 14.143 82.538 14.386 82.066 14.565 C 81.593 14.745 81.073 14.835 80.504 14.835 C 79.672 14.835 78.935 14.64 78.295 14.25 C 77.656 13.86 77.157 13.335 76.802 12.673 C 76.447 12.012 76.269 11.271 76.269 10.451 C 76.269 9.62 76.449 8.879 76.809 8.228 C 77.17 7.577 77.66 7.064 78.28 6.69 C 78.899 6.316 79.595 6.128 80.367 6.128 Z M 59.634 6.313 L 61.522 6.313 L 61.522 7.99 L 59.634 7.99 L 59.634 11.758 C 59.634 12.045 59.682 12.286 59.778 12.481 C 59.874 12.676 60.027 12.825 60.235 12.927 C 60.443 13.03 60.705 13.081 61.02 13.081 C 61.101 13.081 61.19 13.076 61.286 13.066 C 61.383 13.055 61.477 13.045 61.568 13.035 L 61.568 14.65 C 61.436 14.67 61.281 14.691 61.103 14.711 C 60.926 14.732 60.766 14.742 60.624 14.742 C 59.72 14.742 59.019 14.491 58.521 13.989 C 58.024 13.486 57.775 12.773 57.775 11.851 L 57.775 7.99 L 56.343 7.99 L 56.343 6.313 L 56.526 6.313 C 56.922 6.313 57.229 6.203 57.447 5.982 C 57.666 5.762 57.775 5.451 57.775 5.052 L 57.775 4.406 L 59.634 4.406 Z M 107.453 3.19 L 107.453 14.65 L 105.518 14.65 L 105.518 3.19 Z M 28.952 14.65 L 27.094 14.65 L 27.094 6.313 L 28.952 6.313 Z M 44.156 6.128 C 44.765 6.128 45.306 6.261 45.778 6.528 C 46.25 6.795 46.618 7.164 46.882 7.636 C 47.146 8.108 47.278 8.651 47.278 9.266 L 47.278 14.65 L 45.42 14.65 L 45.42 9.743 C 45.42 9.354 45.346 9.018 45.199 8.736 C 45.052 8.454 44.849 8.235 44.59 8.082 C 44.331 7.928 44.029 7.851 43.683 7.851 C 43.338 7.851 43.031 7.928 42.762 8.082 C 42.493 8.236 42.284 8.454 42.137 8.736 C 41.99 9.018 41.916 9.354 41.916 9.743 L 41.916 14.65 L 40.058 14.65 L 40.058 6.313 L 41.825 6.313 L 41.825 7.337 C 42.016 6.998 42.278 6.728 42.609 6.528 C 43.051 6.261 43.567 6.128 44.156 6.128 Z M 75.857 7.897 L 75.142 7.897 C 74.573 7.897 74.113 8.074 73.763 8.428 C 73.413 8.782 73.238 9.277 73.238 9.912 L 73.238 14.65 L 71.379 14.65 L 71.379 6.313 L 73.146 6.313 L 73.146 7.421 C 73.326 7.035 73.573 6.75 73.885 6.567 C 74.296 6.326 74.786 6.205 75.355 6.205 L 75.857 6.205 Z M 95.129 14.65 L 93.042 14.65 L 92.204 12.143 L 87.695 12.143 L 86.857 14.65 L 84.769 14.65 L 88.731 3.19 L 91.183 3.19 Z M 100.232 3.19 C 101.004 3.19 101.682 3.331 102.266 3.613 C 102.85 3.895 103.309 4.306 103.644 4.844 C 103.979 5.382 104.147 6.031 104.147 6.79 C 104.147 7.538 103.979 8.182 103.644 8.72 C 103.309 9.258 102.847 9.669 102.259 9.951 C 101.669 10.233 100.994 10.374 100.232 10.374 L 97.978 10.374 L 97.978 14.65 L 96.043 14.65 L 96.043 3.19 Z M 51.498 11.204 C 51.082 11.276 50.77 11.412 50.562 11.612 C 50.353 11.812 50.249 12.066 50.249 12.373 C 50.249 12.671 50.364 12.914 50.592 13.104 C 50.82 13.294 51.113 13.389 51.468 13.389 C 51.905 13.389 52.291 13.291 52.626 13.096 C 52.961 12.902 53.222 12.64 53.41 12.312 C 53.598 11.984 53.692 11.62 53.692 11.22 L 53.692 10.817 Z M 34.406 7.851 C 33.959 7.851 33.56 7.956 33.21 8.166 C 32.86 8.377 32.585 8.661 32.387 9.02 C 32.189 9.379 32.09 9.784 32.09 10.235 C 32.09 10.687 32.189 11.089 32.387 11.443 C 32.585 11.797 32.86 12.078 33.21 12.289 C 33.56 12.499 33.959 12.604 34.406 12.604 C 34.843 12.604 35.231 12.501 35.571 12.297 C 35.911 12.091 36.178 11.809 36.371 11.45 C 36.564 11.091 36.66 10.687 36.66 10.235 C 36.66 9.784 36.561 9.379 36.363 9.02 C 36.165 8.661 35.899 8.377 35.564 8.166 C 35.228 7.956 34.843 7.851 34.406 7.851 Z M 88.258 10.404 L 91.625 10.404 L 89.948 5.378 Z M 80.367 7.682 C 79.93 7.682 79.542 7.792 79.201 8.013 C 78.861 8.233 78.6 8.551 78.417 8.966 C 78.337 9.148 78.278 9.345 78.242 9.559 L 82.375 9.559 C 82.364 9.333 82.32 9.12 82.241 8.92 C 82.088 8.536 81.85 8.233 81.525 8.013 C 81.2 7.792 80.814 7.682 80.367 7.682 Z M 97.978 8.651 L 100.263 8.651 C 100.659 8.651 101.001 8.574 101.291 8.42 C 101.58 8.266 101.806 8.048 101.969 7.766 C 102.131 7.484 102.213 7.159 102.213 6.79 C 102.213 6.41 102.131 6.082 101.969 5.805 C 101.806 5.528 101.58 5.31 101.291 5.152 C 101.001 4.993 100.659 4.913 100.263 4.913 L 97.978 4.913 Z M 28.952 5.267 L 27.094 5.267 L 27.094 3.19 L 28.952 3.19 Z" fill="#18181B"></path><path d="M 11.9 1.577 L 4.979 1.577 C 3.103 1.577 1.583 3.112 1.583 5.006 L 1.583 8.227 L 11.9 8.227 L 11.9 13.017 C 11.9 15.788 9.675 18.034 6.93 18.034 L 0.021 18.034 L 0.021 16.458 L 6.942 16.458 C 8.818 16.458 10.338 14.922 10.338 13.029 L 10.338 9.807 L 0.021 9.807 L 0.021 5.018 C 0.021 2.247 2.246 0 4.99 0 L 11.9 0 Z M 9.181 13.029 C 9.181 14.277 8.179 15.289 6.942 15.289 L 0 15.289 L 0 13.712 L 6.954 13.712 C 7.321 13.712 7.619 13.412 7.619 13.041 L 7.619 10.798 L 9.181 10.798 Z M 6.463 12.547 L 0.021 12.547 L 0.021 10.97 L 6.463 10.97 Z M 11.921 4.322 L 4.967 4.322 C 4.599 4.322 4.301 4.623 4.301 4.994 L 4.301 7.237 L 2.74 7.237 L 2.74 5.006 C 2.74 3.757 3.742 2.745 4.978 2.745 L 11.921 2.745 Z M 11.899 7.065 L 5.458 7.065 L 5.458 5.487 L 11.899 5.487 Z" fill="#18181B"></path></g></svg></defs><use href="#svg386312201_9454"></use></svg>