<svg version="1.2" xmlns="http://www.w3.org/2000/svg" viewBox="0 0 260 260" width="260" height="260">
	<title>New Project</title>
	<defs>
		<linearGradient id="g1" x2="1" gradientUnits="userSpaceOnUse" gradientTransform="matrix(152,0,0,52,0,26)">
			<stop offset="0" stop-color="#fde047"/>
			<stop offset="1" stop-color="#facc15"/>
		</linearGradient>
		<linearGradient id="g2" x2="1" gradientUnits="userSpaceOnUse" gradientTransform="matrix(74,0,0,52,186,26)">
			<stop offset="0" stop-color="#d8b4fe"/>
			<stop offset="1" stop-color="#c084fc"/>
		</linearGradient>
		<linearGradient id="g3" x2="1" gradientUnits="userSpaceOnUse" gradientTransform="matrix(74,0,0,52,0,130)">
			<stop offset="0" stop-color="#fca5a5"/>
			<stop offset="1" stop-color="#f87171"/>
		</linearGradient>
		<linearGradient id="g4" x2="1" gradientUnits="userSpaceOnUse" gradientTransform="matrix(152,0,0,52,108,130)">
			<stop offset="0" stop-color="#86efac"/>
			<stop offset="1" stop-color="#4ade80"/>
		</linearGradient>
		<linearGradient id="g5" x2="1" gradientUnits="userSpaceOnUse" gradientTransform="matrix(260,0,0,52,0,234)">
			<stop offset="0" stop-color="#93c5fd"/>
			<stop offset="1" stop-color="#60a5fa"/>
		</linearGradient>
	</defs>
	<style>
		.s0 { fill: url(#g1) } 
		.s1 { fill: url(#g2) } 
		.s2 { fill: url(#g3) } 
		.s3 { fill: url(#g4) } 
		.s4 { fill: url(#g5) } 
	</style>
	<path id="Layer 1" class="s0" d="m0 8c0-4.4 3.6-8 8-8h136c4.4 0 8 3.6 8 8v36c0 4.4-3.6 8-8 8h-136c-4.4 0-8-3.6-8-8z"/>
	<path id="Shape 2" class="s1" d="m186 8c0-4.4 3.6-8 8-8h58c4.4 0 8 3.6 8 8v36c0 4.4-3.6 8-8 8h-58c-4.4 0-8-3.6-8-8z"/>
	<path id="Layer 2" class="s2" d="m0 112c0-4.4 3.6-8 8-8h58c4.4 0 8 3.6 8 8v36c0 4.4-3.6 8-8 8h-58c-4.4 0-8-3.6-8-8z"/>
	<path id="Layer 3" class="s3" d="m108 112c0-4.4 3.6-8 8-8h136c4.4 0 8 3.6 8 8v36c0 4.4-3.6 8-8 8h-136c-4.4 0-8-3.6-8-8z"/>
	<path id="Layer 4" class="s4" d="m0 216c0-4.4 3.6-8 8-8h244c4.4 0 8 3.6 8 8v36c0 4.4-3.6 8-8 8h-244c-4.4 0-8-3.6-8-8z"/>
</svg>