<?xml version="1.0" standalone="no"?>
<!DOCTYPE svg PUBLIC "-//W3C//DTD SVG 20010904//EN" "http://www.w3.org/TR/2001/REC-SVG-20010904/DTD/svg10.dtd">
<svg version="1.0" xmlns="http://www.w3.org/2000/svg"
  width="700.000000pt" height="700.000000pt" viewBox="0 0 700.000000 700.000000"
  preserveAspectRatio="xMidYMid meet">
  <g transform="translate(0.000000,700.000000) scale(0.100000,-0.100000)"
    fill="#000000" stroke="none">
    <path
      d="M153 6992 c-42 -13 -109 -69 -129 -108 -18 -37 -19 -68 -22 -559 -2
-354 1 -534 8 -564 15 -58 59 -114 112 -139 l43 -21 1880 2 c1034 1 1891 5
1904 9 41 12 94 62 119 111 l24 45 0 519 c0 352 -4 532 -11 560 -14 50 -48 93
-99 125 l-37 23 -1885 2 c-1037 0 -1895 -2 -1907 -5z" />
    <path
      d="M5155 6989 c-45 -13 -100 -63 -124 -112 -21 -43 -21 -56 -21 -577 0
-522 0 -534 21 -576 25 -52 76 -97 128 -113 27 -8 273 -11 858 -11 l819 0 54
33 c38 22 62 46 80 77 l25 45 2 530 c2 396 0 540 -9 570 -17 55 -85 119 -142
134 -55 13 -1644 14 -1691 0z" />
    <path
      d="M140 4187 c-46 -15 -113 -85 -128 -135 -17 -55 -17 -1055 0 -1104 17
-51 63 -104 110 -126 42 -20 57 -21 870 -21 824 -1 828 -1 873 20 25 12 57 35
72 53 55 65 54 55 54 628 l0 531 -23 45 c-28 55 -83 101 -134 113 -58 13
-1651 10 -1694 -4z" />
    <path
      d="M3062 4190 c-47 -11 -103 -59 -130 -113 l-24 -45 0 -529 c0 -574 -1
-563 56 -630 15 -18 41 -40 59 -50 30 -17 123 -18 1915 -21 l1883 -2 50 21
c57 25 102 75 118 134 16 57 15 1029 -1 1093 -15 61 -80 125 -142 141 -53 13
-3729 14 -3784 1z" />
    <path
      d="M145 1387 c-55 -22 -74 -37 -107 -85 l-33 -47 0 -556 0 -556 29 -42
c36 -51 68 -75 121 -90 29 -8 960 -11 3355 -11 3231 0 3316 1 3357 19 51 24
93 65 115 113 16 34 18 88 17 570 0 517 -1 534 -21 576 -24 51 -78 96 -133
111 -59 16 -6658 14 -6700 -2z" />
  </g>
</svg>
